<svg xmlns="http://www.w3.org/2000/svg" viewBox="0 0 200 136">
  <path fill="white" d="M16.4,49.2 L16.1,48.8 L15.8,48.4 L16.1,47.8 L16.5,47.8 L16.6,47.3 L16.3,47.1 L15.3,47.1 L14.7,46.8 L13.9,46.6 L13.6,46.4 L13.6,46.0 L13.0,46.1 L12.9,45.8 L12.4,44.8 L11.3,44.0 L10.8,43.8 L9.7,42.9 L8.3,42.6 L8.2,42.5 L8.4,40.9 L8.7,40.2 L8.8,39.2 L8.6,38.9 L8.7,38.4 L8.0,37.9 L8.1,37.7 L8.8,37.3 L9.1,36.7 L9.3,36.6 L10.1,36.9 L10.4,36.9 L10.8,37.0 L10.8,37.3 L11.8,37.8 L12.6,37.8 L12.6,37.4 L13.1,37.0 L13.7,37.1 L13.7,36.5 L14.0,36.1 L14.4,35.9 L16.0,35.3 L15.9,34.9 L16.1,34.9 L16.2,35.1 L16.6,35.3 L16.8,35.1 L16.7,35.0 L16.8,34.7 L17.4,34.2 L17.8,34.1 L19.6,33.5 L18.7,33.4 L17.4,32.6 L16.7,31.9 L16.6,31.6 L16.9,31.6 L17.2,31.6 L17.1,31.3 L17.0,31.3 L16.4,30.6 L17.1,29.7 L17.3,28.8 L17.2,28.6 L17.4,28.3 L17.1,28.0 L16.7,27.5 L16.6,27.4 L16.9,26.6 L17.2,26.5 L17.5,26.2 L18.2,25.3 L18.3,24.5 L18.1,24.1 L18.3,23.4 L18.3,23.2 L18.3,23.1 L18.4,22.8 L20.0,23.0 L21.7,23.1 L23.7,23.2 L27.3,23.2 L29.1,23.5 L29.8,23.9 L31.1,24.0 L33.4,24.0 L36.9,23.7 L41.7,23.0 L43.4,22.7 L44.5,22.9 L45.0,23.0 L45.5,23.1 L46.0,23.3 L47.1,23.4 L49.2,23.3 L55.6,22.8 L59.1,22.4 L61.9,22.0 L62.2,21.8 L62.6,21.8 L62.8,21.8 L63.2,21.7 L63.8,21.7 L64.0,21.8 L64.8,21.8 L65.7,21.9 L65.7,21.7 L65.9,21.9 L66.6,22.1 L67.3,22.3 L67.9,22.7 L69.2,23.5 L69.6,23.4 L70.6,23.7 L71.1,24.6 L71.8,25.1 L71.7,26.1 L72.5,27.3 L72.8,27.9 L72.7,28.5 L72.3,30.4 L71.2,30.9 L71.1,31.2 L70.5,31.5 L70.2,31.5 L68.0,32.6 L66.5,33.4 L66.3,33.5 L66.1,33.9 L64.7,34.9 L64.4,35.1 L64.2,35.1 L63.7,35.3 L62.2,35.8 L60.7,36.5 L60.6,36.5 L59.2,37.2 L57.6,38.1 L57.4,38.6 L57.3,39.3 L57.3,40.3 L57.5,41.5 L57.8,42.2 L58.9,44.1 L60.1,45.4 L61.7,46.5 L63.0,47.1 L64.9,47.7 L68.0,48.9 L69.2,49.4 L70.6,49.9 L72.7,50.7 L73.5,50.8 L75.3,51.9 L76.9,52.5 L78.5,52.8 L80.2,53.2 L81.3,53.5 L83.4,54.4 L84.6,54.9 L85.4,55.3 L86.0,55.6 L87.4,55.8 L88.5,56.4 L88.7,56.5 L89.4,56.5 L90.2,56.8 L90.2,56.9 L90.4,57.1 L92.0,57.7 L92.1,57.8 L92.1,57.8 L92.6,58.2 L93.0,58.3 L94.8,58.8 L95.6,58.9 L96.0,59.0 L96.6,59.0 L98.4,59.7 L100.3,60.1 L102.5,60.5 L103.8,61.4 L105.4,61.7 L105.8,61.6 L106.6,62.1 L107.4,61.7 L107.0,61.4 L107.2,61.4 L107.3,61.4 L107.4,61.5 L107.5,61.6 L107.4,61.8 L107.4,62.0 L107.7,62.4 L109.7,62.9 L111.3,63.4 L113.2,63.8 L114.8,64.3 L115.7,64.4 L117.0,64.7 L117.3,64.9 L118.9,65.5 L122.4,66.9 L123.0,67.0 L124.3,68.0 L124.3,68.3 L125.7,68.7 L126.9,69.3 L127.6,69.8 L128.3,69.8 L128.5,70.0 L130.3,71.3 L130.8,71.6 L131.6,72.6 L131.7,72.8 L131.7,72.9 L132.2,73.2 L133.6,73.6 L133.9,73.7 L135.1,74.6 L137.5,75.9 L138.0,76.4 L138.1,76.6 L139.8,77.4 L142.2,78.2 L142.3,78.3 L143.0,78.4 L145.4,79.0 L148.3,79.8 L150.3,80.4 L152.1,81.4 L153.8,82.2 L154.9,82.6 L155.1,82.8 L157.3,83.7 L160.6,84.1 L161.6,84.2 L161.9,84.2 L162.0,84.1 L161.9,83.9 L162.0,83.9 L162.5,84.4 L162.6,84.7 L163.0,85.0 L163.5,85.1 L164.1,85.1 L164.5,85.0 L163.9,85.1 L163.8,85.2 L163.8,85.2 L163.8,85.2 L163.8,85.3 L163.7,85.3 L163.7,85.3 L163.7,85.4 L163.6,85.4 L163.6,85.4 L163.6,85.3 L163.6,85.2 L163.6,85.1 L163.4,85.1 L162.4,86.0 L161.7,86.1 L161.6,86.2 L161.7,86.2 L162.8,86.0 L164.2,85.8 L165.2,85.7 L166.0,86.6 L166.1,86.9 L166.9,87.8 L167.5,88.2 L167.4,88.8 L167.1,89.5 L167.1,89.7 L167.5,90.2 L168.8,91.1 L169.1,91.2 L169.4,91.8 L169.8,92.0 L171.6,93.2 L172.4,93.7 L174.1,94.1 L174.3,94.3 L174.6,94.5 L175.2,94.7 L176.4,95.1 L176.9,95.5 L178.1,96.2 L178.6,96.8 L179.3,97.3 L181.0,98.4 L181.1,98.6 L180.9,98.6 L181.0,98.8 L181.5,99.4 L183.3,100.4 L184.6,101.7 L185.8,102.7 L186.2,102.8 L186.1,102.8 L186.1,102.8 L186.1,102.8 L186.2,102.9 L186.3,103.0 L187.5,103.9 L187.4,104.0 L187.3,104.2 L187.5,104.4 L187.7,104.5 L188.0,104.7 L188.2,105.3 L188.2,105.4 L188.3,105.6 L188.6,105.7 L189.1,106.6 L189.1,106.9 L188.8,107.3 L188.8,107.7 L189.2,108.3 L189.4,108.3 L189.6,108.6 L189.9,109.0 L189.8,109.0 L189.8,109.1 L189.9,109.5 L190.3,109.7 L190.5,110.1 L190.4,110.3 L190.3,110.4 L190.3,110.5 L190.7,110.5 L191.2,110.5 L191.4,110.8 L191.6,110.9 L191.7,111.2 L191.3,111.4 L191.6,112.0 L191.9,112.6 L191.5,112.8 L190.7,113.4 L190.1,113.9 L189.9,114.6 L189.9,114.7 L189.8,115.0 L189.8,115.1 L189.7,115.5 L189.7,115.5 L189.3,115.8 L187.4,117.7 L186.7,118.0 L186.3,118.8 L186.2,119.0 L185.6,121.0 L185.5,122.1 L185.3,122.3 L185.5,122.5 L185.7,124.0 L185.5,124.2 L185.4,125.0 L185.2,125.4 L185.1,126.0 L185.3,126.5 L185.0,127.0 L183.9,127.8 L183.9,127.7 L182.4,127.8 L182.1,127.4 L181.8,127.1 L181.4,127.1 L181.2,127.0 L180.2,126.4 L180.1,126.3 L178.9,125.8 L178.4,125.8 L175.8,125.7 L174.9,125.2 L173.7,124.7 L173.3,124.6 L172.9,124.5 L170.5,122.9 L169.3,122.3 L168.9,121.9 L167.9,121.3 L167.7,121.2 L167.4,120.8 L166.8,120.2 L166.8,120.0 L166.6,119.6 L165.0,118.0 L165.0,117.7 L165.7,117.9 L166.1,117.5 L166.4,116.9 L166.2,116.3 L166.0,115.8 L165.8,115.6 L164.7,115.1 L163.9,115.0 L164.4,114.7 L164.4,114.7 L164.2,114.9 L165.4,114.4 L165.9,113.1 L165.9,112.5 L165.2,111.7 L165.0,111.3 L164.2,110.7 L163.2,110.0 L162.2,109.3 L161.1,108.1 L161.0,106.4 L160.6,106.0 L160.0,105.5 L160.0,105.4 L160.6,105.8 L160.7,105.7 L160.5,105.2 L160.2,105.0 L159.9,104.9 L158.4,103.8 L158.1,103.7 L157.5,103.6 L157.3,103.7 L157.3,103.8 L157.1,103.9 L155.9,103.5 L153.5,103.2 L153.3,103.3 L153.3,103.3 L153.1,103.3 L153.1,103.1 L152.1,103.2 L151.7,103.0 L151.4,102.9 L148.8,102.7 L145.3,102.9 L141.6,103.1 L141.2,103.2 L140.0,103.2 L139.9,103.1 L139.6,102.6 L139.0,102.4 L138.1,102.3 L137.9,102.2 L137.5,102.1 L137.1,101.6 L136.5,101.4 L135.9,101.3 L134.1,101.2 L133.5,101.0 L133.6,100.8 L133.5,100.7 L133.2,100.5 L131.9,100.3 L131.5,100.0 L130.0,99.7 L129.8,99.6 L129.6,99.3 L128.6,99.0 L128.3,99.0 L127.1,98.2 L125.9,98.0 L125.4,97.6 L124.4,97.6 L124.3,97.4 L124.8,96.9 L125.5,96.8 L125.6,96.9 L125.9,96.8 L127.1,95.9 L126.3,94.7 L124.1,94.1 L123.3,93.5 L122.5,93.0 L122.3,92.8 L121.7,92.7 L121.0,92.4 L120.1,92.2 L118.5,92.1 L117.5,92.2 L116.7,92.4 L115.7,92.6 L114.2,93.1 L113.0,93.7 L111.8,94.3 L110.4,95.2 L108.1,97.1 L106.3,98.0 L106.1,97.6 L106.0,97.4 L105.7,97.4 L104.6,96.5 L104.3,96.4 L104.2,95.8 L103.9,95.2 L102.8,94.9 L101.5,94.7 L101.1,94.8 L100.9,94.8 L100.0,93.6 L100.5,92.7 L99.9,92.4 L99.8,91.4 L99.4,90.9 L98.9,90.7 L99.2,89.6 L99.5,88.5 L99.9,88.1 L99.1,86.6 L99.3,86.1 L99.7,83.8 L98.4,83.1 L99.0,82.9 L99.5,82.4 L97.3,81.4 L96.7,80.8 L96.2,81.2 L95.2,80.6 L92.9,80.3 L92.2,80.1 L91.8,80.6 L92.2,81.0 L91.8,81.4 L91.5,80.9 L91.3,80.5 L90.2,80.6 L90.0,81.0 L90.6,82.0 L89.4,81.2 L89.5,80.9 L88.4,80.2 L87.6,81.1 L86.4,82.1 L84.2,83.1 L83.1,82.8 L82.5,81.6 L81.4,81.1 L80.5,80.7 L79.0,79.2 L78.0,78.6 L76.9,78.2 L76.5,77.6 L75.9,77.2 L75.2,76.4 L75.0,76.1 L74.7,75.7 L74.3,74.5 L74.2,74.0 L73.8,73.4 L71.9,72.2 L71.0,72.0 L70.8,72.2 L70.3,72.2 L69.6,72.7 L69.6,73.0 L69.0,73.3 L67.5,72.4 L66.5,72.1 L65.6,71.8 L64.0,71.2 L62.9,70.9 L61.5,70.5 L61.4,69.9 L63.1,69.8 L63.7,69.2 L64.0,69.0 L64.2,68.0 L64.1,67.6 L64.4,67.1 L64.8,66.7 L63.8,65.9 L62.8,65.8 L62.0,64.9 L61.8,64.1 L60.7,63.8 L60.6,63.5 L59.7,62.9 L58.1,62.6 L57.5,62.3 L57.2,62.3 L56.6,61.7 L55.8,61.9 L55.4,62.0 L54.5,62.1 L54.2,62.0 L54.0,62.1 L53.9,62.4 L53.1,62.7 L52.6,63.4 L52.2,64.0 L51.8,64.1 L51.8,64.0 L50.9,64.3 L50.7,64.3 L50.0,63.6 L49.5,63.5 L48.6,63.8 L48.7,63.9 L46.0,64.0 L44.1,63.9 L43.1,63.6 L42.5,63.7 L41.0,63.7 L40.3,64.0 L40.1,64.1 L39.9,64.5 L39.4,64.8 L39.1,64.9 L39.1,65.1 L39.2,65.1 L38.5,65.6 L35.9,64.7 L35.4,64.6 L35.1,64.7 L34.3,64.6 L34.1,64.5 L32.0,63.2 L31.5,63.5 L30.2,64.3 L29.8,64.1 L29.1,63.7 L28.4,63.7 L28.1,63.5 L27.3,63.5 L26.3,63.7 L25.9,63.6 L24.9,63.3 L24.7,62.7 L23.5,61.6 L22.2,61.1 L22.1,60.8 L22.7,59.7 L24.6,58.7 L24.9,58.6 L24.7,58.4 L24.0,56.9 L24.3,56.7 L24.6,56.7 L24.8,56.8 L25.5,56.1 L24.7,55.5 L24.5,55.3 L24.1,55.1 L23.4,55.0 L23.2,55.2 L22.7,55.4 L22.4,54.8 L22.2,54.8 L21.9,54.8 L21.6,54.5 L20.8,54.3 L20.2,54.5 L19.2,54.5 L18.9,54.6 L18.6,54.1 L18.1,53.6 L17.9,53.4 L18.0,53.2 L18.1,53.0 L16.9,52.5 L16.5,52.3 L15.8,52.3 L15.5,52.2 L15.1,52.1 L14.8,51.5 L14.8,51.3 L14.7,50.8 L14.5,50.3 L14.6,50.0 L16.1,49.3 L16.4,49.2 Z"/>
  <path fill="white" d="M95.2,80.5 L95.2,80.6 L95.3,80.6 L95.3,80.6 L95.6,80.7 L95.6,80.7 L95.8,80.6 L95.9,80.6 L95.9,80.5 L95.8,80.5 L95.7,80.5 L95.5,80.5 L95.2,80.5 Z"/>
  <path fill="white" d="M37.0,13.2 L37.0,13.2 L36.9,13.2 L36.9,13.2 L36.9,13.1 L36.9,13.1 L36.9,13.1 L37.0,13.1 L37.1,13.1 L37.1,13.1 L37.1,13.1 L37.1,13.1 L37.0,13.2 Z"/>
  <path fill="white" d="M36.1,14.1 L36.1,14.1 L36.0,14.0 L36.0,14.0 L36.0,14.0 L35.9,14.0 L35.8,13.9 L35.8,13.9 L35.8,13.9 L35.8,13.7 L35.9,13.6 L36.2,13.4 L36.3,13.3 L36.4,13.2 L36.4,13.2 L36.4,13.2 L36.4,13.1 L36.4,13.1 L36.4,13.1 L36.5,13.0 L36.6,13.0 L36.6,13.0 L36.6,13.0 L36.7,13.1 L36.8,13.2 L36.8,13.3 L36.8,13.4 L36.8,13.5 L36.6,13.8 L36.2,14.0 L36.1,14.1 Z"/>
  <path fill="white" d="M37.2,13.3 L37.2,13.3 L37.2,13.3 L37.2,13.3 L37.1,13.3 L37.1,13.2 L37.3,13.2 L37.7,12.8 L37.8,12.8 L37.8,12.8 L37.8,12.8 L37.8,12.8 L37.9,12.8 L38.0,12.9 L37.9,13.0 L37.9,13.0 L37.7,13.1 L37.3,13.3 L37.2,13.3 Z"/>
  <path fill="white" d="M37.5,12.8 L37.5,12.8 L37.4,12.8 L37.4,12.8 L37.4,12.7 L37.4,12.6 L37.4,12.5 L37.5,12.5 L37.5,12.4 L37.6,12.3 L37.7,12.3 L37.7,12.3 L37.8,12.3 L37.8,12.3 L37.8,12.3 L37.9,12.3 L37.9,12.4 L37.9,12.5 L37.9,12.5 L37.5,12.8 Z"/>
  <path fill="white" d="M49.6,8.0 L49.7,8.0 L49.9,8.0 L49.9,8.0 L49.9,8.0 L49.9,8.0 L49.9,8.1 L49.8,8.1 L49.8,8.1 L49.8,8.2 L49.8,8.2 L49.8,8.2 L49.8,8.2 L49.7,8.2 L49.7,8.2 L49.5,8.1 L49.5,8.1 L49.5,8.1 L49.5,8.1 L49.5,8.0 L49.5,8.0 L49.5,8.0 L49.6,8.0 L49.6,8.0 Z"/>
  <path fill="white" d="M72.9,28.3 L72.9,28.3 L72.9,28.3 L72.9,28.3 L72.9,28.3 L72.9,28.3 L72.9,28.3 L72.9,28.3 L73.0,28.2 L73.0,28.2 L73.0,28.2 L73.0,28.2 L73.0,28.2 L73.0,28.3 L73.0,28.3 L73.0,28.3 L72.9,28.3 L72.9,28.3 Z"/>
  <path fill="white" d="M72.4,26.9 L72.3,26.9 L72.3,26.8 L72.3,26.8 L72.3,26.8 L72.3,26.8 L72.3,26.8 L72.3,26.8 L72.3,26.8 L72.3,26.8 L72.4,26.8 L72.4,26.8 L72.4,26.8 L72.4,26.9 L72.4,26.9 L72.4,26.9 Z"/>
  <path fill="white" d="M72.1,24.6 L72.1,24.6 L72.1,24.6 L72.2,24.6 L72.2,24.7 L72.2,24.7 L72.2,24.7 L72.2,24.7 L72.2,24.7 L72.2,24.7 L72.2,24.7 L72.2,24.7 L72.2,24.7 L72.2,24.7 L72.2,24.7 L72.2,24.7 L72.2,24.7 L72.1,24.6 L72.1,24.6 L72.1,24.6 L72.0,24.6 L72.0,24.6 L72.0,24.6 L72.0,24.6 L72.0,24.5 L72.0,24.5 L72.0,24.5 L72.0,24.5 L72.0,24.5 L72.0,24.5 L72.1,24.5 L72.1,24.5 L72.1,24.5 L72.1,24.6 Z"/>
  <path fill="white" d="M68.4,22.7 L68.4,22.7 L68.3,22.7 L68.3,22.7 L68.3,22.7 L68.3,22.7 L68.3,22.7 L68.3,22.7 L68.4,22.7 L68.4,22.7 L68.4,22.7 L68.4,22.7 L68.4,22.7 L68.4,22.7 L68.4,22.7 L68.4,22.7 L68.4,22.7 L68.4,22.7 L68.4,22.7 Z"/>
  <path fill="white" d="M123.0,96.1 L123.1,96.1 L123.1,96.1 L123.0,96.1 L123.0,96.0 L123.0,96.0 L123.0,96.0 L123.0,96.1 L123.1,96.1 L123.1,96.1 L123.1,96.1 L123.1,96.1 L123.1,96.1 L123.1,96.1 L123.1,96.1 L123.2,96.2 L123.2,96.2 L123.0,96.1 L122.9,96.1 L122.9,96.1 L122.9,96.1 L122.9,96.1 L122.9,96.0 L122.9,96.0 L122.9,96.0 L122.9,96.0 L122.9,96.0 L123.0,96.0 L123.0,96.0 L123.0,96.0 L123.0,96.0 L122.9,96.0 L122.9,96.0 L122.9,96.1 L122.9,96.1 L123.0,96.1 L123.0,96.1 L123.0,96.1 L123.0,96.1 Z"/>
  <path fill="white" d="M122.2,95.4 L122.6,95.6 L122.1,95.8 L122.0,95.8 L122.0,95.8 L121.9,95.8 L121.8,95.8 L121.7,95.8 L121.3,95.5 L121.5,95.5 L121.5,95.5 L121.5,95.5 L121.5,95.5 L121.6,95.5 L121.6,95.5 L121.8,95.5 L121.8,95.5 L121.8,95.5 L121.9,95.5 L122.0,95.4 L122.1,95.4 L122.1,95.3 L122.1,95.3 L122.1,95.3 L122.2,95.3 L122.2,95.3 L122.2,95.2 L122.3,95.1 L122.3,95.2 L122.3,95.2 L122.3,95.3 L122.2,95.4 Z"/>
  <path fill="white" d="M166.7,86.0 L166.7,86.0 L166.7,86.0 L166.7,86.0 L166.7,86.0 L166.7,86.0 L166.7,86.0 L166.7,86.0 L166.7,86.0 Z"/>
  <path fill="white" d="M165.4,85.5 L165.4,85.5 L165.4,85.5 L165.4,85.5 L165.4,85.5 L165.4,85.5 L165.4,85.4 L165.5,85.4 L165.5,85.4 L165.5,85.4 L165.5,85.4 L165.5,85.4 L165.5,85.5 L165.5,85.5 L165.5,85.5 L165.5,85.5 L165.5,85.5 L165.5,85.5 L165.4,85.5 L165.4,85.5 L165.4,85.5 L165.4,85.5 Z"/>
  <path fill="white" d="M165.2,85.7 L165.3,85.6 L165.3,85.5 L165.2,85.5 L165.2,85.5 L165.1,85.5 L165.1,85.4 L165.1,85.4 L165.1,85.4 L165.2,85.4 L165.3,85.4 L165.3,85.4 L165.3,85.4 L165.4,85.4 L165.4,85.4 L165.4,85.5 L165.4,85.5 L165.4,85.5 L165.4,85.5 L165.4,85.5 L165.3,85.6 L165.3,85.7 L165.2,85.7 Z"/>
  <path fill="white" d="M165.0,85.4 L165.0,85.4 L165.0,85.4 L165.0,85.4 L165.0,85.4 L165.0,85.4 L165.0,85.4 L164.9,85.4 L165.0,85.4 L165.0,85.4 L165.0,85.3 L165.0,85.3 L165.0,85.3 L165.0,85.3 L165.0,85.4 L165.0,85.4 L165.0,85.4 L165.0,85.4 Z"/>
  <path fill="white" d="M164.9,85.3 L164.9,85.4 L164.9,85.4 L164.9,85.3 L164.9,85.3 L164.9,85.3 L164.9,85.3 L164.9,85.3 L164.9,85.3 L164.9,85.3 L164.9,85.3 L164.9,85.3 L164.9,85.3 L164.9,85.3 L164.9,85.3 L164.9,85.3 L164.9,85.3 L164.9,85.3 L164.9,85.3 Z"/>
  <path fill="white" d="M164.8,85.3 L164.8,85.3 L164.8,85.3 L164.8,85.3 L164.8,85.3 L164.8,85.3 L164.8,85.3 L164.8,85.3 L164.8,85.3 L164.8,85.3 L164.8,85.3 L164.8,85.3 L164.8,85.3 L164.8,85.3 L164.8,85.3 L164.8,85.3 Z"/>
  <path fill="white" d="M164.9,85.3 L164.9,85.3 L164.9,85.3 L164.9,85.3 L164.9,85.3 L164.9,85.3 L164.9,85.3 L164.9,85.3 L164.9,85.3 L164.9,85.3 L164.9,85.3 L164.9,85.3 L164.9,85.3 L164.9,85.3 Z"/>
  <path fill="white" d="M156.3,83.1 L156.3,83.1 L156.3,83.1 L156.3,83.1 L156.3,83.1 L156.3,83.1 L156.3,83.1 L156.3,83.1 L156.3,83.1 L156.3,83.1 L156.3,83.1 L156.3,83.1 L156.3,83.1 L156.4,83.1 L156.4,83.1 L156.4,83.1 L156.4,83.1 L156.4,83.1 L156.3,83.1 L156.3,83.1 Z"/>
  <path fill="white" d="M156.3,83.1 L156.3,83.1 L156.3,83.1 L156.3,83.1 L156.3,83.0 L156.3,83.0 L156.3,83.0 L156.3,83.0 L156.3,83.0 L156.3,83.0 L156.3,83.1 L156.3,83.1 L156.3,83.1 Z"/>
  <path fill="white" d="M155.6,82.6 L155.5,82.6 L155.5,82.6 L155.5,82.6 L155.5,82.6 L155.5,82.6 L155.5,82.6 L155.5,82.6 L155.5,82.6 L155.6,82.6 L155.6,82.6 L155.6,82.6 Z"/>
  <path fill="white" d="M155.3,82.6 L155.3,82.6 L155.3,82.6 L155.3,82.6 L155.3,82.5 L155.3,82.5 L155.3,82.5 L155.3,82.5 L155.3,82.5 L155.3,82.5 L155.3,82.5 L155.4,82.5 L155.4,82.6 L155.3,82.6 Z"/>
  <path fill="white" d="M162.8,115.2 L162.9,115.2 L162.9,115.2 L162.9,115.2 L162.9,115.2 L162.9,115.2 L162.9,115.2 L162.9,115.2 L163.0,115.2 L163.0,115.2 L163.0,115.2 L163.0,115.2 L163.0,115.2 L163.0,115.2 L162.8,115.4 L162.8,115.4 L162.8,115.5 L162.7,115.5 L162.6,115.5 L162.6,115.5 L162.6,115.5 L162.6,115.5 L162.5,115.5 L162.5,115.5 L162.5,115.4 L162.5,115.4 L162.5,115.3 L162.5,115.3 L162.6,115.2 L162.6,115.1 L162.7,115.1 L162.7,115.1 L162.7,115.1 L162.7,115.1 L162.7,115.1 L162.7,115.1 L162.7,115.1 L162.8,115.2 Z"/>
  <path fill="white" d="M163.7,115.1 L163.7,115.0 L163.8,115.0 L163.8,115.0 L163.8,115.0 L163.8,115.1 L163.8,115.1 L163.7,115.1 L163.7,115.1 L163.7,115.1 L163.7,115.1 L163.7,115.1 L163.7,115.1 L163.7,115.0 L163.7,115.0 L163.7,115.0 L163.7,115.1 L163.7,115.1 Z"/>
  <path fill="white" d="M191.1,113.2 L191.1,113.2 L191.1,113.2 L191.1,113.2 L191.1,113.2 L191.1,113.2 L191.1,113.2 L191.1,113.2 L191.1,113.2 L191.1,113.2 Z"/>
  <path fill="white" d="M171.6,123.6 L171.6,123.6 L171.6,123.6 L171.6,123.6 L171.6,123.6 L171.6,123.6 L171.6,123.6 L171.6,123.6 L171.6,123.6 L171.6,123.6 L171.6,123.6 L171.6,123.6 L171.6,123.6 Z"/>
  <path fill="white" d="M171.4,123.5 L171.4,123.5 L171.4,123.5 L171.4,123.5 L171.4,123.5 L171.4,123.5 L171.4,123.5 L171.4,123.5 L171.4,123.5 L171.4,123.5 L171.4,123.5 L171.4,123.5 L171.4,123.5 L171.4,123.5 L171.4,123.5 L171.4,123.5 L171.4,123.5 Z"/>
  <path fill="white" d="M170.2,122.9 L170.2,122.9 L170.2,122.9 L170.3,122.9 L170.3,122.9 L170.3,122.9 L170.3,122.9 L170.3,122.9 L170.3,122.9 L170.3,122.9 L170.2,122.9 L170.2,122.9 L170.2,122.9 L170.2,122.9 L170.2,122.9 L170.2,122.9 Z"/>
  <path fill="white" d="M159.7,105.2 L159.7,105.3 L159.7,105.3 L159.7,105.3 L159.6,105.2 L159.6,105.2 L159.6,105.2 L159.6,105.2 L159.6,105.2 L159.6,105.2 L159.7,105.2 L159.7,105.2 L159.7,105.2 L159.7,105.2 L159.7,105.2 L159.7,105.2 L159.7,105.2 L159.7,105.2 Z"/>
  <path fill="white" d="M159.6,105.2 L159.6,105.2 L159.5,105.2 L159.4,105.1 L159.4,105.1 L159.4,105.1 L159.4,105.1 L159.3,105.1 L159.3,105.0 L159.3,105.0 L159.2,104.8 L159.2,104.8 L159.2,104.8 L159.2,104.8 L159.2,104.8 L159.3,104.8 L159.3,104.9 L159.4,104.9 L159.3,104.9 L159.5,105.0 L159.5,105.0 L159.6,105.2 L159.6,105.2 L159.6,105.2 Z"/>
  <path fill="white" d="M158.6,104.5 L158.5,104.5 L158.5,104.5 L158.4,104.4 L158.4,104.4 L158.3,104.4 L158.3,104.4 L158.3,104.4 L158.3,104.4 L158.3,104.4 L158.3,104.3 L158.3,104.3 L158.3,104.3 L158.4,104.3 L158.4,104.3 L158.4,104.3 L158.4,104.3 L158.4,104.3 L158.4,104.4 L158.4,104.4 L158.6,104.4 L158.6,104.4 L158.6,104.4 L158.6,104.5 L158.6,104.5 L158.6,104.5 L158.6,104.5 L158.6,104.5 Z"/>
</svg>
